<svg id="Capa_1" data-name="Capa 1" xmlns="http://www.w3.org/2000/svg" viewBox="0 0 118.13 118.13"><defs><style>.cls-1{fill:#f0a029;}.cls-2{fill:#fff;}.cls-3{fill:#fec652;}</style></defs><title>Embirrados</title><rect class="cls-1" width="118.13" height="118.13" rx="29.9"/><path class="cls-2" d="M31.54,57.17l-5.61-4,2.81-5.61,6.14-9.07h3.88l3.82,1.91,3.88-3.1-2.59-3.4c0-.06-5.41-3.34-5.41-3.34l-3-.72s-5.85,4.06-6,4.42S19.43,49,19.43,49l-1.49,4.24,4.39,7.17,4.14,1.72,3.82-2.39Z"/><path class="cls-2" d="M54.41,26.72l2-4.68,8.9-1.37L71,25.13l8.59,1.59,3.07,3.12,7.91,1,4.78,6v5.89l4.29,11.83.8,12L98.56,77s-2.87,4.93-3.35,4.93H90.28L87.89,70.7l.16-10.3.16-2.93-2.71,1.6-2.82-1.6L77.47,52l-2.88-.84L70.39,50,67.2,46,67,40.4l.32-3.5-5.57-4.45Z"/><polygon class="cls-3" points="54.41 26.72 67.36 36.9 66.41 43.11 70.39 49.95 77.47 52.02 84.23 57.9 84.23 60.4 59.06 95.75 52.09 97.53 28.7 81.93 22.33 74.45 24.22 67.93 54.41 26.72"/><path d="M85.55,62.2C84.36,63.79,83.16,65.36,82,67Q73.38,78.91,64.76,90.86,63,93.31,61.08,95.63c-3.62,4.43-8.51,5.28-13.14,2q-11.65-8.28-23.1-16.88c-5.13-3.83-5.79-8.8-2.12-14.09,2.4-3.47,2.36-3.41-1-5.94a17.56,17.56,0,0,1-4.31-4.1c-2-3.09-1.14-6.2.89-9,3.61-5,7.25-10,10.85-15,3.4-4.71,7.91-5.52,12.66-2.21.7.49,1.39,1,2.09,1.51,2.83,2,2.78,2,4.82-1,2.21-3.22,4.14-6.75,6.88-9.47,4.39-4.38,11.2-3.71,15.25,1a3.89,3.89,0,0,0,3.83,1.62c2.9-.32,5.38,1,7.71,2.73a6.53,6.53,0,0,0,3.4,1.31A11.93,11.93,0,0,1,97.16,40.55a12.8,12.8,0,0,0,.94,4.22c1,3.21,2.6,6.32,3,9.59,1,8.35,1.41,16.75-2.16,24.74A8.91,8.91,0,0,1,98,80.8c-1.39,1.83-3,3.45-5.51,3.18a5.6,5.6,0,0,1-4.77-4.17,35.38,35.38,0,0,1-1.55-7.75c-.26-3.2-.06-6.43-.06-9.65Zm-2.87-2.55c-2.05-2.28-3.84-4.37-5.76-6.32a3.22,3.22,0,0,0-2-.53A10.58,10.58,0,0,1,65.25,39a1.88,1.88,0,0,0-.84-2.49c-2.75-1.95-5.51-3.88-8.16-6-1.36-1.05-2.07-.86-3.06.51Q39.8,49.59,26.26,68.07c-3.14,4.31-2.69,7.24,1.6,10.35Q38.33,86,48.73,93.59C53.17,96.86,56,96.48,59.2,92l18.48-25.4C79.43,64.19,81.17,61.76,82.68,59.65Zm7.11-8.44.48.22c0,.48,0,1,0,1.45-.43,7.29-1.51,14.58-.31,21.9A16.89,16.89,0,0,0,91,78.69c.87,2,2.64,2.18,4,.39a6.8,6.8,0,0,0,1.18-2.28,78.77,78.77,0,0,0,2-9.64c.78-6.87.25-13.71-2.89-19.95a15.52,15.52,0,0,1-1.93-7.83,7.68,7.68,0,0,0-9.23-7.68,2.72,2.72,0,0,1-3.08-1.2c-2-2.67-5-3.72-8-2.6-2.37.86-3,.14-3.88-1.83-2.1-4.52-8.39-5.38-11.84-1.86-1.27,1.3-1.4,2.32.24,3.47,3.53,2.47,6.93,5.1,10.46,7.56,1.36.94,1.79,1.7.81,3.28A6.77,6.77,0,0,0,69,46.05a7.55,7.55,0,0,0,7.09,3.66,3,3,0,0,1,2,.67c1.59,1.49,2.91,3.3,4.58,4.67,2,1.64,2.83,1.43,4.51-.55C88.06,53.43,88.91,52.31,89.79,51.21ZM36.07,31.57c-1,.58-2.38,1-3.11,2q-6.29,8.31-12.28,16.83a4.27,4.27,0,0,0,.89,6,20.94,20.94,0,0,0,3.29,2.42c1.06.61,2.05,2.74,3.52.91,1.59-2-.76-2.53-1.75-3.33-2.87-2.29-3.27-4.55-1.1-7.57,1.93-2.67,3.91-5.3,5.82-8C35.44,35.05,35.83,35,42,38.46A2.36,2.36,0,0,0,44.06,38c.26-.21.06-1.54-.33-1.88a53.33,53.33,0,0,0-5-3.67A13,13,0,0,0,36.07,31.57Zm4.49,10.31a15.82,15.82,0,0,0-2.81-2.1,2.22,2.22,0,0,0-1.92.74c-2.47,3.26-4.76,6.65-7.25,9.89-1,1.37-1.09,2.29.34,3.38s2.38,1.29,3.51-.36c2.4-3.48,4.93-6.87,7.4-10.31C40,42.84,40.19,42.51,40.56,41.88Z"/><path d="M74.59,57.47a333.33,333.33,0,0,1-20.2,27.77C54.83,77.8,68.75,59.39,74.59,57.47Z"/><path d="M54.24,42.07c.75,6-14.64,27.19-20.76,28.63C40.27,60.78,47.06,51.59,54.24,42.07Z"/><path d="M64.14,51.05A98.25,98.25,0,0,1,44.68,78C44.71,73.49,59.92,52.43,64.14,51.05Z"/></svg>